# xmcd
#
# Track frame offsets: 
#        150
#        11239
#        24745
#        44179
#        55658
#        69171
#        85777
#        99360
#        116642
#        133885
#        154417
#        170675
#        185985
#        199540
#        218069
#        232878
#
# Disc length: 3376 seconds
#
# Revision: 0
# Processed by: cddbd v1.4PL0 Copyright (c) Steve Scherf et al.
# Submitted via: ExactAudioCopy v0.90a11
#
DISCID=e40d2e10
DTITLE=Emmylou Harris - Live With James Burton (bootleg)
DYEAR=1900
DGENRE=
TTITLE0=Cash On The Barrelhead
TTITLE1=You're Still On My Mind
TTITLE2=Coat Of Many Colors
TTITLE3=The Race Is On
TTITLE4=If I Could Only Win Your Love
TTITLE5=The Angels Rejoiced Last Night
TTITLE6=Country Baptizin'
TTITLE7=Tulsa Queen
TTITLE8=The Bottle Let Me Down
TTITLE9=Sin City
TTITLE10=Here, There and Everywhere
TTITLE11=One Of These Days
TTITLE12=Feelin' Single, Seein' Double
TTITLE13=Together Again
TTITLE14=Amarillo
TTITLE15=Return Of The Grievous Angel
EXTD=
EXTT0=
EXTT1=
EXTT2=
EXTT3=
EXTT4=
EXTT5=
EXTT6=
EXTT7=
EXTT8=
EXTT9=
EXTT10=
EXTT11=
EXTT12=
EXTT13=
EXTT14=
EXTT15=
PLAYORDER=
